<svg width="32" height="32" viewBox="0 0 32 32" fill="none" xmlns="http://www.w3.org/2000/svg">
<path d="M14.1909 0.0240239C14.1829 0.0280239 14.1149 0.0440239 14.0349 0.0560239C13.7589 0.100024 13.2229 0.288024 12.8949 0.460024C12.1349 0.852024 11.4109 1.50802 10.6469 2.50002C10.1989 3.08002 9.57888 4.19202 9.21888 5.06002C9.01088 5.55602 8.83888 6.04002 8.86688 6.04002C8.87888 6.04002 8.86688 6.06402 8.84288 6.09602C8.78288 6.16802 8.47088 7.40002 8.49488 7.46402C8.50688 7.49602 8.49888 7.52802 8.47488 7.54002C8.45488 7.55602 8.44688 7.58002 8.45888 7.60002C8.49488 7.66002 8.37088 7.72002 7.91488 7.86002C7.66288 7.94002 7.43088 8.01202 7.39888 8.02002C7.36688 8.02802 7.25888 8.06002 7.15888 8.09202C6.90288 8.17602 6.40288 8.32402 6.37888 8.32002C6.36688 8.32002 6.30288 8.34802 6.23888 8.38002C6.17088 8.41602 6.11888 8.43202 6.11888 8.42002C6.11888 8.40802 6.05488 8.42402 5.97888 8.45602C5.89888 8.49202 5.82288 8.51602 5.80688 8.52002C5.79088 8.52002 5.70688 8.54402 5.61888 8.56802C5.53088 8.59202 5.44288 8.62002 5.41888 8.62402C5.21488 8.67602 4.77088 8.85202 4.67488 8.92402C4.52688 9.02802 4.40288 9.28802 4.37488 9.54802C4.36688 9.65602 4.34688 9.78402 4.33888 9.84002C4.31888 9.94802 4.27488 10.24 4.25888 10.4C4.25488 10.456 4.23488 10.6 4.21888 10.72C4.18288 10.972 4.17088 11.06 4.13888 11.336C4.09888 11.676 4.08288 11.796 4.05488 11.944C4.03888 12.024 4.02288 12.172 4.01488 12.276C4.01088 12.376 4.00288 12.46 3.99888 12.46C3.99488 12.46 3.98688 12.496 3.98288 12.54C3.95088 12.772 3.91088 13.116 3.89888 13.22C3.89088 13.284 3.87488 13.392 3.86288 13.456C3.85088 13.524 3.83088 13.68 3.81888 13.812C3.80288 13.94 3.78688 14.084 3.77488 14.132C3.76688 14.18 3.75088 14.316 3.73488 14.432C3.72288 14.548 3.70688 14.68 3.69888 14.724C3.69088 14.768 3.67088 14.916 3.65488 15.052C3.62688 15.32 3.62688 15.32 3.58688 15.62C3.57088 15.728 3.55088 15.892 3.53888 15.98C3.52688 16.068 3.51088 16.184 3.49888 16.24C3.49088 16.292 3.47088 16.436 3.45888 16.56C3.44688 16.684 3.43088 16.82 3.42288 16.868C3.41088 16.916 3.39488 17.064 3.37888 17.196C3.36688 17.328 3.34688 17.468 3.33888 17.512C3.33088 17.556 3.30288 17.764 3.27888 17.98C3.25488 18.196 3.22288 18.408 3.21488 18.456C3.20688 18.5 3.19088 18.628 3.17888 18.74C3.16688 18.848 3.15088 18.984 3.13888 19.04C3.09888 19.32 3.07488 19.48 3.05888 19.68C3.04688 19.8 3.02688 19.944 3.01888 20C3.01088 20.056 2.99088 20.2 2.97888 20.32C2.96688 20.44 2.95088 20.568 2.93888 20.6C2.93088 20.632 2.91088 20.76 2.90288 20.88C2.89088 21 2.87488 21.136 2.86288 21.18C2.85488 21.224 2.83488 21.376 2.81888 21.52C2.80288 21.664 2.78288 21.808 2.77888 21.84C2.77088 21.872 2.75488 21.988 2.74288 22.1C2.72688 22.208 2.69888 22.444 2.67488 22.62C2.65088 22.796 2.62288 23.004 2.61488 23.08C2.60688 23.156 2.59488 23.272 2.58288 23.34C2.57088 23.404 2.55088 23.56 2.53888 23.68C2.52688 23.8 2.50688 23.944 2.49888 24C2.45888 24.272 2.43888 24.436 2.41888 24.6C2.40688 24.7 2.39088 24.816 2.38288 24.864C2.37488 24.908 2.35488 25.052 2.34288 25.18C2.32688 25.308 2.30688 25.468 2.29888 25.536C2.28688 25.604 2.27088 25.724 2.26288 25.8C2.23488 26.044 2.16688 26.54 2.13888 26.728C2.13088 26.8 2.11088 26.94 2.10288 27.04C2.09088 27.14 2.07088 27.284 2.05888 27.36C2.04688 27.436 2.03088 27.58 2.01888 27.676C2.01088 27.772 1.99088 27.916 1.97888 27.996C1.93888 28.276 1.91088 28.5 1.90688 28.58C1.89888 28.656 1.96288 28.684 2.31888 28.74C2.48688 28.768 2.57888 28.784 2.73888 28.812C2.80688 28.828 2.91488 28.844 2.97888 28.856C3.45488 28.936 4.54288 29.124 4.61088 29.14C4.65888 29.148 4.76288 29.168 4.83888 29.176C4.91488 29.188 5.17888 29.232 5.41888 29.276C5.66288 29.32 5.93088 29.364 6.01888 29.38C6.11088 29.392 6.22688 29.412 6.27888 29.42C6.48688 29.464 6.62288 29.488 6.69888 29.5C6.74288 29.504 6.84288 29.52 6.91888 29.536C6.99488 29.548 7.11488 29.568 7.17888 29.58C7.39488 29.616 8.01888 29.724 8.11888 29.744C8.17488 29.752 8.27488 29.772 8.33888 29.78C8.40688 29.792 8.50288 29.808 8.55888 29.82C8.61488 29.832 8.71488 29.848 8.77888 29.856C8.84688 29.868 8.96288 29.888 9.03888 29.9C9.11488 29.916 9.22288 29.936 9.27888 29.94C9.36688 29.952 9.67088 30.008 9.93888 30.06C9.98288 30.068 10.0829 30.084 10.1589 30.1C10.2349 30.112 10.3629 30.132 10.4389 30.148C10.5149 30.16 10.6149 30.176 10.6589 30.18C10.7389 30.188 10.9389 30.224 11.3069 30.296C11.3509 30.308 11.4789 30.328 11.5869 30.344C11.6909 30.356 11.8149 30.376 11.8589 30.388C11.9749 30.412 12.2909 30.468 12.5189 30.504C12.5749 30.512 12.6829 30.532 12.7589 30.544C12.9229 30.576 12.9669 30.584 13.1589 30.612C13.2389 30.624 13.3469 30.644 13.3989 30.656C13.4549 30.668 13.5629 30.688 13.6389 30.7C13.7149 30.708 13.8229 30.728 13.8789 30.736C14.0349 30.768 14.7269 30.884 14.8389 30.9C14.8949 30.908 14.9829 30.928 15.0389 30.94C15.0949 30.952 15.2029 30.968 15.2789 30.98C15.3549 30.992 15.4629 31.008 15.5189 31.02C15.6389 31.044 15.5789 31.036 16.6389 31.216C16.6949 31.228 16.8029 31.244 16.8789 31.256C16.9549 31.268 17.0749 31.288 17.1389 31.304C17.2069 31.316 17.2949 31.332 17.3389 31.34C17.4309 31.352 18.1709 31.476 18.3189 31.504C18.4549 31.532 18.8269 31.592 19.0149 31.624C19.0989 31.636 19.2069 31.656 19.2549 31.664C19.2989 31.676 19.3949 31.692 19.4589 31.7C19.5269 31.712 19.6229 31.728 19.6789 31.74C19.7309 31.748 19.8469 31.768 19.9349 31.784C20.0229 31.796 20.1069 31.812 20.1189 31.82C20.1309 31.828 20.2389 31.844 20.3589 31.86C20.4789 31.876 20.5869 31.892 20.5989 31.9C20.6149 31.912 20.8949 31.952 21.0949 31.972C21.1709 31.98 21.1709 31.7 21.1709 17.888C21.1709 10.14 21.1629 3.79202 21.1509 3.78002C21.1429 3.76802 20.9389 3.82002 20.7029 3.89602L20.2709 4.03202L20.1949 3.85202C20.1549 3.75602 20.1189 3.66002 20.1189 3.64802C20.1189 3.63202 20.0789 3.52002 20.0269 3.40002C19.7029 2.61202 19.1109 1.81202 18.6189 1.48802C18.5309 1.42802 18.4509 1.36802 18.4389 1.35602C18.4269 1.34402 18.2989 1.27602 18.1549 1.20802C17.8109 1.04402 17.4189 0.952024 17.0069 0.940024L16.6789 0.932024L16.4669 0.736024C16.1549 0.448024 16.0749 0.384024 15.9109 0.308024C15.8269 0.272024 15.6989 0.212024 15.6269 0.180024C15.3989 0.0760239 14.9949 0.00802387 14.5909 0.0120239C14.3749 0.0120239 14.1949 0.0160239 14.1909 0.0240239ZM15.0789 1.09202C15.2869 1.13202 15.5909 1.32002 15.4429 1.32002C15.4229 1.32002 15.3789 1.34402 15.3509 1.36802C15.3229 1.39602 15.2469 1.44402 15.1869 1.47602C15.0389 1.55602 14.5389 1.97602 14.3629 2.17602C14.2829 2.26402 14.1869 2.36802 14.1509 2.40802C13.9869 2.57602 13.4189 3.38802 13.4309 3.44002C13.4309 3.45202 13.4109 3.48802 13.3789 3.52002C13.2749 3.63602 12.7989 4.64802 12.7949 4.76002C12.7909 4.77202 12.7789 4.79602 12.7589 4.82002C12.7309 4.86002 12.6029 5.22802 12.5949 5.30002C12.5909 5.32002 12.5749 5.37202 12.5509 5.41202C12.5309 5.45202 12.5069 5.51602 12.4989 5.55202C12.4869 5.58802 12.4389 5.78002 12.3869 5.98002C12.3349 6.17602 12.2909 6.35602 12.2869 6.38002C12.2669 6.49202 12.2349 6.54802 12.1869 6.55202C12.1309 6.55602 11.9829 6.59202 11.9709 6.60002C11.9629 6.60802 11.9469 6.61202 11.9309 6.62002C11.9109 6.62402 11.8709 6.63602 11.8389 6.65202C11.8069 6.66402 11.4989 6.75602 11.1589 6.86002C10.8189 6.96402 10.3949 7.09202 10.2189 7.14802C10.0429 7.20002 9.87888 7.25202 9.85088 7.25602C9.82288 7.26002 9.78688 7.27602 9.77488 7.29202C9.75888 7.30802 9.70288 7.32002 9.65088 7.32002C9.57488 7.32002 9.55888 7.30402 9.57488 7.24802C9.58688 7.21202 9.63488 7.03602 9.67888 6.86002C9.72288 6.68402 9.77488 6.50402 9.79488 6.46002C9.81488 6.41602 9.87888 6.23602 9.94288 6.06002C10.1189 5.55202 10.4789 4.75202 10.7469 4.28002C11.0309 3.78002 11.4189 3.18402 11.5349 3.06802C11.5709 3.03202 11.5989 2.98802 11.5989 2.96802C11.5989 2.94402 11.6109 2.92002 11.6309 2.91202C11.6469 2.90402 11.7109 2.83602 11.7749 2.76002C12.1589 2.28802 12.6549 1.83202 13.0789 1.55602C13.5309 1.26802 14.0229 1.08402 14.4109 1.06002C14.5389 1.05202 14.6549 1.04002 14.6629 1.02802C14.6749 1.01602 14.7509 1.02402 14.8309 1.04402C14.9109 1.06002 15.0229 1.08402 15.0789 1.09202ZM17.4949 2.05602C17.6149 2.07202 18.0069 2.30402 18.1669 2.45202C18.5629 2.81602 18.9469 3.42402 19.1349 3.97602C19.1709 4.08002 19.2189 4.20002 19.2389 4.24002C19.2909 4.34002 19.2429 4.36802 18.7989 4.49602C18.5909 4.55602 18.3589 4.63202 18.2869 4.66802C18.2109 4.70002 18.1429 4.71602 18.1309 4.70402C18.1189 4.69202 18.0589 4.70802 17.9949 4.74002C17.7709 4.86002 17.7349 4.83202 17.7229 4.50802C17.7109 4.11202 17.6589 3.55202 17.6149 3.34002C17.6069 3.29602 17.5909 3.20402 17.5789 3.14002C17.5389 2.91202 17.4669 2.62002 17.3709 2.32002C17.3229 2.15602 17.2789 2.01602 17.2789 2.00802C17.2789 2.00002 17.3189 2.00802 17.3629 2.02002C17.4109 2.03602 17.4709 2.05202 17.4949 2.05602ZM16.2389 2.21202C16.2389 2.24002 16.2669 2.31202 16.2989 2.37602C16.3349 2.44002 16.3789 2.56802 16.4029 2.65602C16.4949 3.01602 16.5589 3.30802 16.5829 3.46002C16.5909 3.54802 16.6109 3.66002 16.6229 3.71202C16.6509 3.85202 16.6909 4.46002 16.6949 4.82002L16.6989 5.13602L16.0789 5.33202C14.7269 5.75602 13.7829 6.04402 13.7309 6.04802C13.7109 6.05202 13.6429 6.07602 13.5749 6.10402C13.4309 6.16402 13.3829 6.14002 13.4429 6.03602C13.4629 5.99202 13.4709 5.96002 13.4589 5.96002C13.4469 5.96002 13.4549 5.92402 13.4789 5.87602C13.5069 5.83202 13.5349 5.74802 13.5429 5.69602C13.5909 5.42402 14.2349 4.00002 14.3229 3.96802C14.3429 3.96002 14.3589 3.93602 14.3589 3.91602C14.3589 3.86402 14.7149 3.33202 14.8789 3.14402C15.2109 2.75602 15.8269 2.24002 15.9549 2.24002C15.9789 2.24002 15.9989 2.22402 15.9989 2.20402C15.9989 2.16402 16.1549 2.12402 16.2109 2.15202C16.2269 2.16002 16.2389 2.18802 16.2389 2.21202ZM15.4949 10.02C15.9749 10.056 16.2189 10.1 16.6309 10.224C16.8149 10.28 16.8789 10.316 16.8789 10.368C16.8789 10.444 16.8589 10.524 16.4749 11.956C16.3389 12.448 16.2269 12.88 16.2189 12.916C16.1909 13.052 15.9229 14.008 15.9109 14.02C15.9029 14.028 15.7749 13.992 15.6269 13.94C15.4789 13.884 15.3469 13.84 15.3269 13.836C15.3109 13.832 15.2829 13.824 15.2589 13.82C14.5149 13.616 13.5029 13.56 12.9589 13.696C12.9029 13.708 12.8149 13.728 12.7669 13.74C12.4549 13.796 11.7989 14.236 11.7989 14.384C11.7989 14.416 11.7869 14.44 11.7669 14.44C11.6949 14.44 11.5589 14.9 11.5589 15.16C11.5589 15.432 11.6269 15.616 11.8029 15.844C12.0829 16.192 12.2349 16.312 13.1989 16.944C13.5629 17.18 13.8669 17.388 13.8709 17.408C13.8789 17.424 13.9069 17.44 13.9309 17.44C13.9589 17.44 14.0269 17.484 14.0869 17.54C14.1469 17.596 14.2149 17.64 14.2389 17.64C14.2589 17.64 14.2789 17.656 14.2789 17.672C14.2789 17.688 14.3269 17.732 14.3909 17.768C14.4989 17.832 15.1869 18.5 15.3389 18.688C15.3829 18.74 15.4709 18.864 15.5349 18.964C15.5989 19.06 15.6829 19.184 15.7189 19.24C15.8789 19.484 16.1309 20.164 16.2229 20.608C16.2949 20.96 16.3149 21.864 16.2629 22.316C16.2149 22.76 16.0069 23.624 15.9229 23.74C15.9069 23.76 15.8509 23.88 15.8029 24C15.6909 24.268 15.3309 24.824 15.1269 25.048C14.9349 25.26 14.6789 25.5 14.4109 25.712C14.2669 25.824 13.3709 26.272 13.2389 26.296C13.1829 26.304 13.0909 26.332 13.0309 26.356C12.9669 26.38 12.9189 26.388 12.9189 26.38C12.9189 26.372 12.8789 26.376 12.8269 26.396C12.7749 26.416 12.6349 26.444 12.5189 26.46C12.4029 26.476 12.2709 26.496 12.2229 26.504C12.1189 26.528 11.0109 26.528 10.8989 26.504C10.8549 26.496 10.7029 26.476 10.5589 26.46C10.2709 26.428 10.2469 26.42 10.1589 26.392C10.1269 26.38 9.97888 26.34 9.83488 26.308C9.20688 26.16 8.47888 25.832 7.83488 25.4C7.35088 25.072 7.13888 24.872 7.17888 24.776C7.19488 24.732 7.21488 24.68 7.21488 24.66C7.21888 24.636 7.23488 24.564 7.25088 24.5C7.26688 24.432 7.28688 24.344 7.29488 24.296C7.30288 24.252 7.34288 24.092 7.37888 23.944C7.41488 23.796 7.45088 23.644 7.45888 23.608C7.46688 23.572 7.47488 23.536 7.47888 23.528C7.49088 23.52 7.49488 23.504 7.53088 23.32C7.56288 23.16 7.59088 23.032 7.61488 22.932C7.69888 22.588 7.77088 22.284 7.78688 22.2C7.79488 22.144 7.81488 22.088 7.83088 22.076C7.84688 22.06 8.01888 22.156 8.21488 22.284C8.93888 22.756 9.86688 23.148 10.4389 23.228C10.6469 23.256 11.0549 23.256 11.1989 23.228C11.5069 23.168 11.8989 22.88 12.0189 22.62C12.2109 22.216 12.2229 21.9 12.0749 21.452C11.9829 21.168 11.8669 21 11.5389 20.664C11.2749 20.4 11.2789 20.4 10.8389 20.08C10.6749 19.96 10.5349 19.848 10.5269 19.832C10.5189 19.812 10.4949 19.8 10.4749 19.8C10.4509 19.8 10.2869 19.688 10.1069 19.552C9.70688 19.252 9.10288 18.652 8.93088 18.38C8.85888 18.268 8.78688 18.16 8.77088 18.14C8.73888 18.1 8.58688 17.796 8.57888 17.76C8.57888 17.748 8.55488 17.7 8.52688 17.648C8.49888 17.6 8.48688 17.56 8.50288 17.56C8.51488 17.56 8.51088 17.536 8.49088 17.508C8.44288 17.448 8.37488 17.192 8.30288 16.8C8.26688 16.6 8.25088 16.28 8.25888 15.84C8.27088 15.104 8.28288 14.996 8.39888 14.54C8.44288 14.364 8.48688 14.188 8.49888 14.152C8.53488 14.004 8.81488 13.34 8.92688 13.124C9.03488 12.928 9.25888 12.588 9.43888 12.34C9.56288 12.172 10.4469 11.32 10.4989 11.32C10.5269 11.32 10.5589 11.304 10.5669 11.284C10.5829 11.236 11.0869 10.916 11.3509 10.784C11.8069 10.552 12.6669 10.256 13.0789 10.184C13.1349 10.172 13.1789 10.164 13.1789 10.16C13.1789 10.152 13.2949 10.132 13.5389 10.104C13.6509 10.088 13.7749 10.072 13.8229 10.06C13.8669 10.048 14.0669 10.032 14.2629 10.016C14.4589 10.004 14.6229 9.98802 14.6269 9.98402C14.6389 9.97202 15.1789 9.99202 15.4949 10.02Z" fill="black"/>
<path d="M22.3789 18.108C22.3789 25.696 22.3949 31.896 22.4109 31.892C22.4269 31.888 22.5429 31.864 22.6709 31.836C22.7949 31.808 22.9189 31.78 22.9389 31.776C22.9829 31.764 23.4509 31.644 23.5709 31.616C23.6069 31.608 23.6709 31.592 23.7109 31.58C23.7469 31.572 23.8949 31.532 24.0389 31.5C24.2949 31.436 24.3709 31.416 24.5109 31.384C24.5469 31.376 25.0189 31.256 25.5589 31.12C26.0989 30.984 26.5669 30.868 26.5989 30.86C26.6309 30.852 26.8949 30.788 27.1789 30.72C27.4669 30.648 27.7429 30.584 27.7949 30.576C27.8469 30.564 27.9229 30.54 27.9669 30.516C28.0069 30.496 28.0389 30.484 28.0389 30.496C28.0389 30.504 28.1349 30.488 28.2509 30.456C28.3629 30.424 28.5029 30.388 28.5589 30.376C28.6149 30.364 28.9829 30.272 29.3789 30.172C29.7749 30.072 30.1229 29.988 30.1509 29.988C30.2149 29.988 30.2109 29.94 30.1349 29.436C30.1029 29.208 30.0669 28.96 30.0549 28.884C30.0469 28.808 30.0309 28.7 30.0189 28.644C30.0109 28.588 29.9909 28.448 29.9749 28.34C29.9629 28.228 29.9429 28.104 29.9349 28.06C29.9229 28.016 29.9069 27.908 29.8949 27.82C29.8749 27.668 29.7749 26.976 29.7389 26.76C29.6989 26.5 29.5949 25.78 29.5829 25.64C29.5749 25.584 29.5589 25.484 29.5469 25.42C29.5309 25.352 29.5109 25.22 29.4949 25.12C29.4829 25.02 29.4669 24.904 29.4589 24.86C29.4549 24.816 29.4349 24.688 29.4229 24.58C29.4069 24.468 29.3869 24.336 29.3789 24.28C29.3669 24.224 29.3509 24.108 29.3349 24.02C29.3229 23.932 29.3069 23.816 29.2949 23.76C29.2829 23.704 29.2669 23.58 29.2549 23.48C29.2469 23.38 29.2269 23.256 29.2189 23.2C29.2069 23.144 29.1869 23.02 29.1789 22.92C29.1669 22.82 29.1469 22.696 29.1349 22.64C29.1269 22.584 29.1069 22.476 29.0989 22.4C29.0869 22.324 29.0589 22.144 29.0349 22C29.0149 21.856 28.9909 21.684 28.9829 21.62C28.9749 21.552 28.9549 21.436 28.9429 21.36C28.9269 21.284 28.9109 21.164 28.9029 21.1C28.8789 20.9 28.8349 20.584 28.8149 20.48C28.8069 20.424 28.7869 20.316 28.7789 20.24C28.7669 20.164 28.7509 20.044 28.7389 19.98C28.7269 19.912 28.7109 19.788 28.6989 19.7C28.6829 19.612 28.6469 19.376 28.6189 19.176C28.5869 18.972 28.5509 18.72 28.5389 18.616C28.5269 18.508 28.5029 18.364 28.4909 18.3C28.4789 18.232 28.4629 18.124 28.4589 18.06C28.4509 17.992 28.4069 17.696 28.3589 17.4C28.2709 16.836 28.2669 16.788 28.2189 16.46C28.2069 16.348 28.1869 16.216 28.1749 16.16C28.1669 16.104 28.1469 15.988 28.1349 15.9C28.1269 15.812 28.1069 15.696 28.0949 15.64C28.0829 15.584 28.0629 15.46 28.0549 15.36C28.0429 15.26 28.0269 15.136 28.0189 15.08C28.0069 15.024 27.9789 14.852 27.9589 14.7C27.9389 14.544 27.9109 14.376 27.9029 14.32C27.8789 14.184 27.8389 13.892 27.8189 13.72C27.8069 13.644 27.7909 13.536 27.7829 13.48C27.7709 13.424 27.7509 13.3 27.7389 13.2C27.7269 13.1 27.6989 12.92 27.6789 12.8C27.6549 12.68 27.6309 12.5 27.6189 12.4C27.6069 12.3 27.5909 12.176 27.5789 12.12C27.5669 12.064 27.5509 11.948 27.5389 11.86C27.5269 11.772 27.5109 11.664 27.5029 11.62C27.4949 11.576 27.4749 11.44 27.4589 11.32C27.4429 11.2 27.4229 11.068 27.4149 11.028C27.4029 10.964 27.3469 10.568 27.3029 10.26C27.2949 10.216 27.2789 10.108 27.2669 10.02C27.2269 9.77596 27.1949 9.55596 27.1749 9.39996C27.1669 9.32396 27.1509 9.21596 27.1389 9.15996C27.1269 9.10396 27.1109 8.97996 27.0989 8.87996C27.0869 8.77996 27.0589 8.59996 27.0389 8.47996C27.0189 8.35996 26.9909 8.16796 26.9749 8.05996C26.9629 7.94796 26.9349 7.77996 26.9189 7.67996C26.8989 7.58396 26.8949 7.48796 26.9029 7.47196C26.9149 7.45196 26.9029 7.43996 26.8789 7.43996C26.8549 7.43996 26.8429 7.42396 26.8589 7.40396C26.8709 7.37996 26.8629 7.23996 26.8389 7.09196C26.8149 6.94396 26.7869 6.75596 26.7749 6.67996C26.6989 6.07996 26.6669 5.99996 26.4829 5.93996C26.4029 5.91596 25.7549 5.89996 24.3389 5.88396L24.0189 5.87996L23.2189 5.09996C22.7789 4.67196 22.4109 4.31996 22.3989 4.31996C22.3869 4.31996 22.3789 10.524 22.3789 18.108Z" fill="black"/>
</svg>
